{"title":"Body Rock (1984) Marcelo Epstein.avi","uid":8921085,"size":1174882304,"categoryP":"video","categoryS":"movies","magnet":"?xt=urn:btih:0278545c88687b63480e1ebc31dc01da3aee1e62&amp;dn=Body+Rock+%281984%29+Marcelo+Epstein.avi&amp;tr=udp%3A%2F%2Ftracker.openbittorrent.com%3A80&amp;tr=udp%3A%2F%2Fopen.demonii.com%3A1337&amp;tr=udp%3A%2F%2Ftracker.coppersurfer.tk%3A6969&amp;tr=udp%3A%2F%2Fexodus.desync.com%3A6969","seeders":2,"leechers":0,"uploader":"yousef86","files":-1,"time":1379256360,"description":"::Release Info::\n================\nRelease Title: Body Rock (1984) Marcelo Epstein\nEncode date:\n\n::IMDB and TMDB Info::\n======================\nTMDB Link: http://www.themoviedb.org/movie/47946\nIMDB Link: http://www.imdb.com/title/tt0086985\nStoryline: Chilly is just a guy from the streets with a talent for break-dancing. When his wicked moves catch the eye of an industry pro, Chilly finds his dreams of fame and fortune coming true, for better or for worse.\nGenre: Music\nRelease date: 28/09/1984\n\n::Actors::\n==========\nLorenzo Lamas ... Chilly\n\nGeneral\n=======\nComplete name : Body Rock (1984) Marcelo Epstein.avi\nFormat : AVI\nFormat/Info : Audio Video Interleave\nFile size : 1.09 GiB\nDuration : 1h 34mn\nOverall bit rate : 1 665 Kbps\nWriting application : VirtualDubMod 1.5.4.1 (build 2178/release)\nWriting library : VirtualDubMod build 2178/release\n\nVideo\n=====\nID : 0\nFormat : MPEG-4 Visual\nFormat profile : Advanced Simple@L5\nFormat settings, BVOP : 1\nFormat settings, QPel : No\nFormat settings, GMC : No warppoints\nFormat settings, Matrix : Custom\nCodec ID : XVID\nCodec ID/Hint : XviD\nDuration : 1h 34mn\nBit rate : 1 467 Kbps\nWidth : 624 pixels\nHeight : 336 pixels\nDisplay aspect ratio : 1.857\nFrame rate : 23.976 fps\nColor space : YUV\nChroma subsampling : 4:2:0\nBit depth : 8 bits\nScan type : Progressive\nCompression mode : Lossy\nBits/(Pixel*Frame) : 0.292\nStream size : 987 MiB (88%)\nWriting library : XviD 1.1.2 (UTC 2006-11-01)\n\nAudio\n=====\nID : 1\nFormat : AC-3\nFormat/Info : Audio Coding 3\nMode extension : CM (complete main)\nCodec ID : 2000\nDuration : 1h 34mn\nBit rate mode : Constant\nBit rate : 192 Kbps\nChannel(s) : 2 channels\nChannel positions : Front: L R\nSampling rate : 48.0 KHz\nBit depth : 16 bits\nCompression mode : Lossy\nStream size : 129 MiB (12%)\nAlignment : Split accross interleaves\nInterleave, duration : 96 ms (2.30 video frames)\nInterleave, preload duration : 96 ms\nLanguage : English","torrent":{"xt":"urn:btih:0278545c88687b63480e1ebc31dc01da3aee1e62","amp;dn":"Body+Rock+%281984%29+Marcelo+Epstein.avi","amp;tr":["udp%3A%2F%2Ftracker.openbittorrent.com%3A80","udp%3A%2F%2Fopen.demonii.com%3A1337","udp%3A%2F%2Ftracker.coppersurfer.tk%3A6969","udp%3A%2F%2Fexodus.desync.com%3A6969"],"infoHash":"0278545c88687b63480e1ebc31dc01da3aee1e62","infoHashBuffer":{"type":"Buffer","data":[2,120,84,92,136,104,123,99,72,14,30,188,49,220,1,218,58,238,30,98]},"announce":[],"urlList":[]}}